<svg xmlns="http://www.w3.org/2000/svg" xmlns:xlink="http://www.w3.org/1999/xlink" id="Layer_1" x="0px" y="0px" viewBox="0 0 240 65" style="enable-background:new 0 0 240 65;" xml:space="preserve"><style type="text/css">	.st0{fill:url(#Path_171_1_);}	.st1{fill:#FFFFFF;}</style><g id="Group_130956" transform="translate(-156.664 -10752)">			<linearGradient id="Path_171_1_" gradientUnits="userSpaceOnUse" x1="228.7998" y1="10834.1299" x2="228.7998" y2="10832.6367" gradientTransform="matrix(2.668628e-15 43.582 52.1 -3.190205e-15 -564223.6875 812.9473)">		<stop offset="0" style="stop-color:#FFAA4A"></stop>		<stop offset="1" style="stop-color:#E6613F"></stop>	</linearGradient>	<path id="Path_171" class="st0" d="M190.5,10817c-19.2-3.3-33.8-19.1-33.8-37.9v-1.2l33.8-22.1V10817z M234.4,10756.5v22  c0,20.2-16.9,36.9-38.1,38.5v-42l37.8-22.9C234.3,10753.5,234.4,10755,234.4,10756.5z"></path>	<path id="Path_156236" class="st1" d="M267.7,10774.3v-4.4l4.8,0l0,4.4H267.7z M267.7,10799.4v-21.7h4.8l0,21.7H267.7z   M293.6,10799.4v-10.5c0-0.8-0.1-1.5-0.1-2.3c-0.1-0.8-0.3-1.6-0.7-2.4c-0.3-0.8-0.9-1.4-1.5-1.9c-0.8-0.5-1.8-0.8-2.8-0.7  c-0.6,0-1.2,0.1-1.8,0.3c-0.6,0.2-1.2,0.6-1.6,1c-0.5,0.6-0.9,1.3-1.2,2c-0.3,1.1-0.5,2.2-0.4,3.3l-2.9-1.2c0-1.7,0.3-3.5,1.1-5  c0.7-1.5,1.8-2.7,3.2-3.6c1.6-0.9,3.3-1.4,5.2-1.3c1.4,0,2.7,0.2,4,0.8c1,0.5,1.8,1.2,2.5,2.1c0.6,0.8,1.1,1.7,1.4,2.7  c0.3,0.9,0.5,1.8,0.6,2.7c0.1,0.8,0.1,1.5,0.1,2v12.1H293.6z M278.5,10799.4v-21.7h4.3v6.7h0.6v15H278.5z M312.2,10800  c-1.9,0-3.7-0.5-5.2-1.5c-1.5-1-2.7-2.4-3.5-4.1c-0.8-1.8-1.3-3.8-1.2-5.9c0-2,0.4-4,1.2-5.9c0.8-1.7,2-3.1,3.5-4.1  c1.6-1,3.5-1.5,5.4-1.5c1.9-0.1,3.7,0.5,5.2,1.5c1.4,1,2.5,2.5,3.2,4.1c0.8,1.9,1.1,3.9,1.1,5.9c0,2-0.3,4-1.1,5.8  c-0.7,1.7-1.8,3.1-3.2,4.1C315.9,10799.5,314.1,10800.1,312.2,10800z M312.9,10795.6c1.1,0.1,2.2-0.3,3.2-0.9  c0.8-0.6,1.4-1.5,1.8-2.5c0.4-1.2,0.6-2.5,0.6-3.7c0-1.3-0.2-2.5-0.6-3.7c-0.3-1-0.9-1.9-1.7-2.5c-0.9-0.6-1.9-0.9-3-0.9  c-1.2,0-2.3,0.3-3.2,1c-0.9,0.7-1.5,1.6-1.9,2.6c-0.4,1.2-0.6,2.4-0.6,3.6c0,1.2,0.2,2.5,0.6,3.6c0.3,1,1,1.9,1.8,2.6  C310.7,10795.3,311.8,10795.7,312.9,10795.6L312.9,10795.6z M318.4,10799.4v-15.3h-0.6v-13.7h4.9v29H318.4z M336.5,10800  c-1.4,0.1-2.7-0.2-4-0.8c-1-0.5-1.8-1.2-2.5-2.1c-0.6-0.8-1.1-1.7-1.4-2.7c-0.3-0.9-0.5-1.8-0.6-2.7c-0.1-0.8-0.1-1.5-0.1-2v-12.1  h4.9v10.5c0,0.8,0.1,1.5,0.1,2.3c0.1,0.8,0.3,1.6,0.7,2.4c0.3,0.8,0.9,1.4,1.5,1.9c0.8,0.5,1.8,0.8,2.8,0.7c0.6,0,1.2-0.1,1.8-0.3  c0.6-0.2,1.2-0.6,1.6-1c0.5-0.6,0.9-1.3,1.2-2c0.3-1.1,0.5-2.2,0.4-3.3l2.9,1.2c0,1.7-0.3,3.5-1.1,5c-0.7,1.5-1.8,2.7-3.2,3.6  C340.1,10799.6,338.3,10800.1,336.5,10800z M343.6,10799.4v-6.7H343v-15h4.9v21.7H343.6z M361.9,10800c-2.3,0.1-4.6-0.5-6.5-1.8  c-1.7-1.2-2.8-3-3.1-5.1l5-0.8c0.2,1,0.8,1.9,1.7,2.5c1,0.6,2.1,1,3.3,0.9c1,0.1,1.9-0.2,2.7-0.7c0.6-0.4,1-1.1,1-1.9  c0-0.4-0.1-0.8-0.4-1.2c-0.4-0.4-1-0.7-1.5-0.9c-0.8-0.3-2-0.6-3.6-1.1c-1.5-0.4-3-0.9-4.4-1.6c-0.9-0.4-1.7-1.1-2.3-2  c-0.5-0.8-0.7-1.8-0.7-2.8c0-1.3,0.3-2.5,1.1-3.5c0.8-1,1.8-1.8,3-2.3c1.4-0.6,3-0.9,4.5-0.8c1.5,0,3.1,0.2,4.5,0.8  c1.2,0.5,2.3,1.2,3.2,2.2c0.8,1,1.3,2.2,1.5,3.4l-5,0.9c-0.1-0.9-0.5-1.7-1.3-2.2c-0.8-0.6-1.8-0.9-2.9-0.9c-1-0.1-1.9,0.1-2.8,0.5  c-0.6,0.3-1.1,1-1,1.7c0,0.4,0.1,0.8,0.4,1.1c0.5,0.4,1.1,0.7,1.7,0.9c0.9,0.3,2.1,0.7,3.8,1.1c1.4,0.3,2.8,0.8,4.2,1.5  c0.9,0.5,1.7,1.2,2.3,2c0.5,0.9,0.7,1.9,0.7,2.9c0.1,2-0.8,3.9-2.4,5.2C366.6,10799.5,364.3,10800.1,361.9,10800z M375.3,10799.4  v-21.7h4.3v5.3l-0.5-0.7c0.3-0.7,0.6-1.4,1.1-2c0.4-0.6,1-1.1,1.6-1.5c0.6-0.4,1.2-0.7,1.8-0.9c0.7-0.2,1.3-0.3,2-0.4  c0.7,0,1.3,0,2,0.1v4.5c-0.7-0.2-1.5-0.3-2.2-0.2c-0.8,0.1-1.6,0.3-2.3,0.7c-0.6,0.3-1.2,0.8-1.6,1.4c-0.4,0.6-0.7,1.2-0.9,1.9  c-0.2,0.8-0.3,1.5-0.3,2.3v11.1H375.3z M391.8,10774.3v-4.4l4.8,0l0,4.4H391.8z M391.8,10799.4v-21.7h4.8l0,21.7H391.8z"></path></g></svg>